<svg width="18" height="18" viewBox="0 0 18 18" fill="none" xmlns="http://www.w3.org/2000/svg">
<g clip-path="url(#clip0_8_4292)">
<rect width="16" height="16" rx="8" transform="matrix(0 -1 -1 0 17 17)" fill="#EBEBEB"/>
<path d="M11.617 12.9981C11.8759 13.0175 12.1226 12.8848 12.2491 12.658C12.3756 12.4312 12.3588 12.1516 12.2062 11.9415C11.4638 10.9196 10.5931 10.0037 9.61677 9.21786C9.25588 8.92737 8.74444 8.92737 8.38355 9.21786C7.40725 10.0037 6.53653 10.9196 5.79414 11.9415C5.6415 12.1516 5.62476 12.4312 5.75124 12.658C5.87771 12.8848 6.12439 13.0175 6.38335 12.9981L7.85338 12.8879C8.61683 12.8306 9.38349 12.8306 10.1469 12.8879L11.617 12.9981Z" fill="#4f46e5"/>
<path d="M11.617 8.99813C11.8759 9.01755 12.1226 8.88482 12.2491 8.65801C12.3756 8.4312 12.3588 8.15158 12.2062 7.94148C11.4638 6.91961 10.5931 6.00373 9.61677 5.21786C9.25588 4.92737 8.74444 4.92737 8.38355 5.21786C7.40725 6.00373 6.53653 6.91961 5.79414 7.94148C5.6415 8.15158 5.62476 8.4312 5.75124 8.65801C5.87771 8.88482 6.12439 9.01755 6.38335 8.99813L7.85338 8.88787C8.61683 8.83061 9.38349 8.83061 10.1469 8.88787L11.617 8.99813Z" fill="#4f46e5"/>
</g>
<rect x="0.5" y="0.5" width="17" height="17" rx="8.5" transform="matrix(0 -1 -1 0 18 18)" stroke="#42536F" stroke-opacity="0.2"/>
<defs>
<clipPath id="clip0_8_4292">
<rect width="16" height="16" rx="8" transform="matrix(0 -1 -1 0 17 17)" fill="white"/>
</clipPath>
</defs>
</svg>
