<svg width="32" height="32" viewBox="0 0 32 32" fill="none" xmlns="http://www.w3.org/2000/svg">
<path d="M20.857 4H11.1428C9.69781 3.99999 8.53225 3.99998 7.58842 4.07709C6.61662 4.15649 5.76304 4.32424 4.97332 4.72662C3.7189 5.36578 2.69903 6.38565 2.05988 7.64006C1.65749 8.42979 1.48974 9.28337 1.41034 10.2552C1.3995 10.3879 1.39018 10.525 1.38217 10.6667H30.6177C30.6097 10.525 30.6003 10.3879 30.5895 10.2552C30.5101 9.28337 30.3423 8.42979 29.94 7.64006C29.3008 6.38565 28.2809 5.36578 27.0265 4.72662C26.2368 4.32424 25.3832 4.15649 24.4114 4.07709C23.4676 3.99998 22.302 3.99999 20.857 4Z" fill="white"/>
<path fill-rule="evenodd" clip-rule="evenodd" d="M1.33325 18.1904L1.33336 13.3333H30.6665L30.6666 18.1906C30.6666 19.6356 30.6666 20.801 30.5895 21.7448L30.5843 21.8063C29.9356 21.1747 29.2462 20.5845 28.5201 20.0399C26.7528 18.7144 24.2456 19.0726 22.9201 20.8399C22.5029 21.3961 22.2525 22.0256 22.1603 22.6685H21.3333C19.1241 22.6685 17.3333 24.4593 17.3333 26.6685C17.3333 27.1353 17.4132 27.5835 17.5602 28H11.1427C9.69771 28 8.53222 28 7.58842 27.9229C6.61662 27.8435 5.76304 27.6758 4.97332 27.2734C3.7189 26.6342 2.69903 25.6144 2.05988 24.3599C1.65749 23.5702 1.48974 22.7166 1.41034 21.7448C1.33323 20.801 1.33324 19.6354 1.33325 18.1904ZM7.79992 16C7.06354 16 6.46659 16.597 6.46659 17.3333C6.46659 18.0697 7.06354 18.6667 7.79992 18.6667H12.1999C12.9363 18.6667 13.5333 18.0697 13.5333 17.3333C13.5333 16.597 12.9363 16 12.1999 16H7.79992Z" fill="white"/>
<path d="M26.9201 22.1732C26.331 21.7314 25.4952 21.8508 25.0534 22.4399C24.6116 23.029 24.731 23.8647 25.3201 24.3066C25.7495 24.6286 26.1617 24.972 26.5553 25.3351H21.3333C20.5969 25.3351 19.9999 25.9321 19.9999 26.6685C19.9999 27.4049 20.5969 28.0018 21.3333 28.0018H26.5553C26.1617 28.365 25.7495 28.7083 25.3201 29.0304C24.731 29.4722 24.6116 30.3079 25.0534 30.8971C25.4952 31.4862 26.331 31.6055 26.9201 31.1637C28.1358 30.2519 29.2337 29.1942 30.1893 28.0148C30.5068 27.6231 30.6666 27.1453 30.6666 26.6685C30.6666 26.1916 30.5068 25.7139 30.1893 25.3221C29.2337 24.1428 28.1358 23.085 26.9201 22.1732Z" fill="white"/>
</svg>
