<svg width="32" height="32" viewBox="0 0 32 32" fill="none" xmlns="http://www.w3.org/2000/svg">
<path fill-rule="evenodd" clip-rule="evenodd" d="M15.9999 1.3335C16.7363 1.3335 17.3333 1.93045 17.3333 2.66683H20.857C22.302 2.66682 23.4676 2.66681 24.4114 2.74392C25.3832 2.82332 26.2368 2.99107 27.0265 3.39345C28.2809 4.03261 29.3008 5.05248 29.94 6.30689C30.3423 7.09661 30.5101 7.9502 30.5895 8.922C30.6666 9.8658 30.6666 11.0313 30.6666 12.4762V15.5239C30.6666 16.9689 30.6666 18.1345 30.5895 19.0783C30.5101 20.0501 30.3423 20.9037 29.94 21.6934C29.3008 22.9478 28.2809 23.9677 27.0265 24.6069C26.2368 25.0093 25.3832 25.177 24.4114 25.2564C24.1217 25.2801 23.811 25.2965 23.4778 25.3079L25.1925 28.7372C25.5218 29.3958 25.2548 30.1967 24.5962 30.5261C23.9376 30.8554 23.1367 30.5884 22.8074 29.9298L20.5092 25.3335H11.4906L9.19249 29.9298C8.86317 30.5884 8.06227 30.8554 7.40364 30.5261C6.745 30.1967 6.47803 29.3958 6.80735 28.7372L8.52203 25.3079C8.18882 25.2965 7.87817 25.2801 7.58842 25.2564C6.61662 25.177 5.76304 25.0093 4.97332 24.6069C3.7189 23.9677 2.69903 22.9478 2.05988 21.6934C1.65749 20.9037 1.48974 20.0501 1.41034 19.0783C1.33323 18.1345 1.33324 16.969 1.33325 15.5239V12.4764C1.33324 11.0314 1.33323 9.86583 1.41034 8.922C1.48974 7.9502 1.65749 7.09661 2.05988 6.30689C2.69903 5.05248 3.7189 4.03261 4.97332 3.39345C5.76304 2.99107 6.61662 2.82332 7.58842 2.74392C8.53226 2.66681 9.6978 2.66682 11.1428 2.66683H14.6666C14.6666 1.93045 15.2635 1.3335 15.9999 1.3335ZM10.5813 18.4694C10.3222 19.1586 9.55334 19.5073 8.86406 19.2482C8.17478 18.9891 7.82607 18.2202 8.0852 17.531C9.15597 14.6827 11.1319 12.2868 13.6993 10.7464L14.0309 10.5474C14.3408 10.3615 14.7128 10.3093 15.0618 10.4028C15.4108 10.4963 15.707 10.7274 15.8825 11.0432L17.7557 14.4151C19.3961 13.202 20.6749 11.5091 21.4185 9.53096C21.6777 8.84169 22.4465 8.49298 23.1358 8.75211C23.8251 9.01124 24.1738 9.78008 23.9146 10.4694C22.8439 13.3176 20.8679 15.7135 18.3005 17.2539L17.9689 17.4529C17.6591 17.6388 17.2871 17.691 16.938 17.5975C16.589 17.5041 16.2929 17.2729 16.1174 16.9571L14.2441 13.5853C12.6037 14.7983 11.325 16.4912 10.5813 18.4694Z" fill="white"/>
</svg>
