<svg xmlns="http://www.w3.org/2000/svg" width="240" height="180" viewBox="0 0 240 180">
<g fill="#ffffff" fill-opacity="0.15">
<circle cx="3.0" cy="3.0" r="3"/>
<circle cx="15.0" cy="3.0" r="3"/>
<circle cx="111.0" cy="3.0" r="3"/>
<circle cx="123.0" cy="3.0" r="3"/>
<circle cx="135.0" cy="3.0" r="3"/>
<circle cx="147.0" cy="3.0" r="3"/>
<circle cx="159.0" cy="3.0" r="3"/>
<circle cx="3.0" cy="15.0" r="3"/>
<circle cx="15.0" cy="15.0" r="3"/>
<circle cx="27.0" cy="15.0" r="3"/>
<circle cx="39.0" cy="15.0" r="3"/>
<circle cx="51.0" cy="15.0" r="3"/>
<circle cx="63.0" cy="15.0" r="3"/>
<circle cx="99.0" cy="15.0" r="3"/>
<circle cx="111.0" cy="15.0" r="3"/>
<circle cx="171.0" cy="15.0" r="3"/>
<circle cx="183.0" cy="15.0" r="3"/>
<circle cx="195.0" cy="15.0" r="3"/>
<circle cx="3.0" cy="27.0" r="3"/>
<circle cx="15.0" cy="27.0" r="3"/>
<circle cx="27.0" cy="27.0" r="3"/>
<circle cx="63.0" cy="27.0" r="3"/>
<circle cx="99.0" cy="27.0" r="3"/>
<circle cx="159.0" cy="27.0" r="3"/>
<circle cx="171.0" cy="27.0" r="3"/>
<circle cx="183.0" cy="27.0" r="3"/>
<circle cx="231.0" cy="27.0" r="3"/>
<circle cx="27.0" cy="39.0" r="3"/>
<circle cx="75.0" cy="39.0" r="3"/>
<circle cx="123.0" cy="39.0" r="3"/>
<circle cx="195.0" cy="39.0" r="3"/>
<circle cx="231.0" cy="39.0" r="3"/>
<circle cx="15.0" cy="51.0" r="3"/>
<circle cx="99.0" cy="51.0" r="3"/>
<circle cx="111.0" cy="51.0" r="3"/>
<circle cx="147.0" cy="51.0" r="3"/>
<circle cx="207.0" cy="51.0" r="3"/>
<circle cx="231.0" cy="51.0" r="3"/>
<circle cx="27.0" cy="63.0" r="3"/>
<circle cx="39.0" cy="63.0" r="3"/>
<circle cx="63.0" cy="63.0" r="3"/>
<circle cx="75.0" cy="63.0" r="3"/>
<circle cx="99.0" cy="63.0" r="3"/>
<circle cx="135.0" cy="63.0" r="3"/>
<circle cx="183.0" cy="63.0" r="3"/>
<circle cx="195.0" cy="63.0" r="3"/>
<circle cx="231.0" cy="63.0" r="3"/>
<circle cx="15.0" cy="75.0" r="3"/>
<circle cx="27.0" cy="75.0" r="3"/>
<circle cx="87.0" cy="75.0" r="3"/>
<circle cx="99.0" cy="75.0" r="3"/>
<circle cx="111.0" cy="75.0" r="3"/>
<circle cx="219.0" cy="75.0" r="3"/>
<circle cx="51.0" cy="87.0" r="3"/>
<circle cx="99.0" cy="87.0" r="3"/>
<circle cx="111.0" cy="87.0" r="3"/>
<circle cx="171.0" cy="87.0" r="3"/>
<circle cx="183.0" cy="87.0" r="3"/>
<circle cx="195.0" cy="87.0" r="3"/>
<circle cx="219.0" cy="87.0" r="3"/>
<circle cx="15.0" cy="99.0" r="3"/>
<circle cx="51.0" cy="99.0" r="3"/>
<circle cx="99.0" cy="99.0" r="3"/>
<circle cx="123.0" cy="99.0" r="3"/>
<circle cx="135.0" cy="99.0" r="3"/>
<circle cx="171.0" cy="99.0" r="3"/>
<circle cx="195.0" cy="99.0" r="3"/>
<circle cx="99.0" cy="111.0" r="3"/>
<circle cx="135.0" cy="111.0" r="3"/>
<circle cx="171.0" cy="111.0" r="3"/>
<circle cx="219.0" cy="111.0" r="3"/>
<circle cx="3.0" cy="123.0" r="3"/>
<circle cx="51.0" cy="123.0" r="3"/>
<circle cx="99.0" cy="123.0" r="3"/>
<circle cx="123.0" cy="123.0" r="3"/>
<circle cx="171.0" cy="123.0" r="3"/>
<circle cx="231.0" cy="123.0" r="3"/>
<circle cx="27.0" cy="135.0" r="3"/>
<circle cx="75.0" cy="135.0" r="3"/>
<circle cx="87.0" cy="135.0" r="3"/>
<circle cx="135.0" cy="135.0" r="3"/>
<circle cx="195.0" cy="135.0" r="3"/>
<circle cx="219.0" cy="135.0" r="3"/>
<circle cx="75.0" cy="147.0" r="3"/>
<circle cx="87.0" cy="147.0" r="3"/>
<circle cx="147.0" cy="147.0" r="3"/>
<circle cx="159.0" cy="147.0" r="3"/>
<circle cx="231.0" cy="147.0" r="3"/>
<circle cx="27.0" cy="159.0" r="3"/>
<circle cx="39.0" cy="159.0" r="3"/>
<circle cx="87.0" cy="159.0" r="3"/>
<circle cx="123.0" cy="159.0" r="3"/>
<circle cx="135.0" cy="159.0" r="3"/>
<circle cx="147.0" cy="159.0" r="3"/>
<circle cx="183.0" cy="159.0" r="3"/>
<circle cx="195.0" cy="159.0" r="3"/>
<circle cx="219.0" cy="159.0" r="3"/>
<circle cx="231.0" cy="159.0" r="3"/>
<circle cx="15.0" cy="171.0" r="3"/>
<circle cx="27.0" cy="171.0" r="3"/>
<circle cx="87.0" cy="171.0" r="3"/>
<circle cx="195.0" cy="171.0" r="3"/>
<circle cx="3.0" cy="183.0" r="3"/>
<circle cx="51.0" cy="183.0" r="3"/>
<circle cx="63.0" cy="183.0" r="3"/>
<circle cx="111.0" cy="183.0" r="3"/>
<circle cx="195.0" cy="183.0" r="3"/>
<circle cx="207.0" cy="183.0" r="3"/>
</g>
<g fill="#ffffff" fill-opacity="0.4">
<circle cx="39.0" cy="3.0" r="3"/>
<circle cx="75.0" cy="3.0" r="3"/>
<circle cx="183.0" cy="3.0" r="3"/>
<circle cx="195.0" cy="3.0" r="3"/>
<circle cx="207.0" cy="3.0" r="3"/>
<circle cx="75.0" cy="15.0" r="3"/>
<circle cx="87.0" cy="15.0" r="3"/>
<circle cx="123.0" cy="15.0" r="3"/>
<circle cx="147.0" cy="15.0" r="3"/>
<circle cx="159.0" cy="15.0" r="3"/>
<circle cx="231.0" cy="15.0" r="3"/>
<circle cx="39.0" cy="27.0" r="3"/>
<circle cx="51.0" cy="27.0" r="3"/>
<circle cx="75.0" cy="27.0" r="3"/>
<circle cx="87.0" cy="27.0" r="3"/>
<circle cx="135.0" cy="27.0" r="3"/>
<circle cx="195.0" cy="27.0" r="3"/>
<circle cx="207.0" cy="27.0" r="3"/>
<circle cx="219.0" cy="27.0" r="3"/>
<circle cx="63.0" cy="39.0" r="3"/>
<circle cx="99.0" cy="39.0" r="3"/>
<circle cx="111.0" cy="39.0" r="3"/>
<circle cx="135.0" cy="39.0" r="3"/>
<circle cx="147.0" cy="39.0" r="3"/>
<circle cx="183.0" cy="39.0" r="3"/>
<circle cx="27.0" cy="51.0" r="3"/>
<circle cx="87.0" cy="51.0" r="3"/>
<circle cx="123.0" cy="51.0" r="3"/>
<circle cx="171.0" cy="51.0" r="3"/>
<circle cx="195.0" cy="51.0" r="3"/>
<circle cx="219.0" cy="51.0" r="3"/>
<circle cx="123.0" cy="63.0" r="3"/>
<circle cx="147.0" cy="63.0" r="3"/>
<circle cx="171.0" cy="63.0" r="3"/>
<circle cx="207.0" cy="63.0" r="3"/>
<circle cx="3.0" cy="75.0" r="3"/>
<circle cx="63.0" cy="75.0" r="3"/>
<circle cx="75.0" cy="75.0" r="3"/>
<circle cx="147.0" cy="75.0" r="3"/>
<circle cx="171.0" cy="75.0" r="3"/>
<circle cx="207.0" cy="75.0" r="3"/>
<circle cx="231.0" cy="75.0" r="3"/>
<circle cx="3.0" cy="87.0" r="3"/>
<circle cx="15.0" cy="87.0" r="3"/>
<circle cx="27.0" cy="87.0" r="3"/>
<circle cx="39.0" cy="87.0" r="3"/>
<circle cx="63.0" cy="87.0" r="3"/>
<circle cx="123.0" cy="87.0" r="3"/>
<circle cx="147.0" cy="87.0" r="3"/>
<circle cx="159.0" cy="87.0" r="3"/>
<circle cx="3.0" cy="99.0" r="3"/>
<circle cx="27.0" cy="99.0" r="3"/>
<circle cx="63.0" cy="99.0" r="3"/>
<circle cx="75.0" cy="99.0" r="3"/>
<circle cx="147.0" cy="99.0" r="3"/>
<circle cx="159.0" cy="99.0" r="3"/>
<circle cx="183.0" cy="99.0" r="3"/>
<circle cx="207.0" cy="99.0" r="3"/>
<circle cx="3.0" cy="111.0" r="3"/>
<circle cx="15.0" cy="111.0" r="3"/>
<circle cx="27.0" cy="111.0" r="3"/>
<circle cx="39.0" cy="111.0" r="3"/>
<circle cx="87.0" cy="111.0" r="3"/>
<circle cx="159.0" cy="111.0" r="3"/>
<circle cx="183.0" cy="111.0" r="3"/>
<circle cx="207.0" cy="111.0" r="3"/>
<circle cx="27.0" cy="123.0" r="3"/>
<circle cx="63.0" cy="123.0" r="3"/>
<circle cx="87.0" cy="123.0" r="3"/>
<circle cx="147.0" cy="123.0" r="3"/>
<circle cx="195.0" cy="123.0" r="3"/>
<circle cx="207.0" cy="123.0" r="3"/>
<circle cx="3.0" cy="135.0" r="3"/>
<circle cx="15.0" cy="135.0" r="3"/>
<circle cx="39.0" cy="135.0" r="3"/>
<circle cx="159.0" cy="135.0" r="3"/>
<circle cx="171.0" cy="135.0" r="3"/>
<circle cx="183.0" cy="135.0" r="3"/>
<circle cx="207.0" cy="135.0" r="3"/>
<circle cx="231.0" cy="135.0" r="3"/>
<circle cx="3.0" cy="147.0" r="3"/>
<circle cx="27.0" cy="147.0" r="3"/>
<circle cx="39.0" cy="147.0" r="3"/>
<circle cx="63.0" cy="147.0" r="3"/>
<circle cx="99.0" cy="147.0" r="3"/>
<circle cx="135.0" cy="147.0" r="3"/>
<circle cx="3.0" cy="159.0" r="3"/>
<circle cx="15.0" cy="159.0" r="3"/>
<circle cx="159.0" cy="159.0" r="3"/>
<circle cx="171.0" cy="159.0" r="3"/>
<circle cx="207.0" cy="159.0" r="3"/>
<circle cx="51.0" cy="171.0" r="3"/>
<circle cx="75.0" cy="171.0" r="3"/>
<circle cx="111.0" cy="171.0" r="3"/>
<circle cx="123.0" cy="171.0" r="3"/>
<circle cx="135.0" cy="171.0" r="3"/>
<circle cx="159.0" cy="171.0" r="3"/>
<circle cx="183.0" cy="171.0" r="3"/>
<circle cx="207.0" cy="171.0" r="3"/>
<circle cx="219.0" cy="171.0" r="3"/>
<circle cx="15.0" cy="183.0" r="3"/>
<circle cx="27.0" cy="183.0" r="3"/>
<circle cx="39.0" cy="183.0" r="3"/>
<circle cx="75.0" cy="183.0" r="3"/>
<circle cx="123.0" cy="183.0" r="3"/>
<circle cx="135.0" cy="183.0" r="3"/>
<circle cx="159.0" cy="183.0" r="3"/>
<circle cx="171.0" cy="183.0" r="3"/>
<circle cx="219.0" cy="183.0" r="3"/>
<circle cx="231.0" cy="183.0" r="3"/>
</g>
<g fill="#ffffff" fill-opacity="0.7">
<circle cx="27.0" cy="3.0" r="3"/>
<circle cx="51.0" cy="3.0" r="3"/>
<circle cx="63.0" cy="3.0" r="3"/>
<circle cx="87.0" cy="3.0" r="3"/>
<circle cx="99.0" cy="3.0" r="3"/>
<circle cx="171.0" cy="3.0" r="3"/>
<circle cx="219.0" cy="3.0" r="3"/>
<circle cx="231.0" cy="3.0" r="3"/>
<circle cx="135.0" cy="15.0" r="3"/>
<circle cx="207.0" cy="15.0" r="3"/>
<circle cx="219.0" cy="15.0" r="3"/>
<circle cx="111.0" cy="27.0" r="3"/>
<circle cx="123.0" cy="27.0" r="3"/>
<circle cx="147.0" cy="27.0" r="3"/>
<circle cx="3.0" cy="39.0" r="3"/>
<circle cx="15.0" cy="39.0" r="3"/>
<circle cx="39.0" cy="39.0" r="3"/>
<circle cx="51.0" cy="39.0" r="3"/>
<circle cx="87.0" cy="39.0" r="3"/>
<circle cx="159.0" cy="39.0" r="3"/>
<circle cx="171.0" cy="39.0" r="3"/>
<circle cx="207.0" cy="39.0" r="3"/>
<circle cx="219.0" cy="39.0" r="3"/>
<circle cx="3.0" cy="51.0" r="3"/>
<circle cx="39.0" cy="51.0" r="3"/>
<circle cx="51.0" cy="51.0" r="3"/>
<circle cx="63.0" cy="51.0" r="3"/>
<circle cx="75.0" cy="51.0" r="3"/>
<circle cx="135.0" cy="51.0" r="3"/>
<circle cx="159.0" cy="51.0" r="3"/>
<circle cx="183.0" cy="51.0" r="3"/>
<circle cx="3.0" cy="63.0" r="3"/>
<circle cx="15.0" cy="63.0" r="3"/>
<circle cx="51.0" cy="63.0" r="3"/>
<circle cx="87.0" cy="63.0" r="3"/>
<circle cx="111.0" cy="63.0" r="3"/>
<circle cx="159.0" cy="63.0" r="3"/>
<circle cx="219.0" cy="63.0" r="3"/>
<circle cx="39.0" cy="75.0" r="3"/>
<circle cx="51.0" cy="75.0" r="3"/>
<circle cx="123.0" cy="75.0" r="3"/>
<circle cx="135.0" cy="75.0" r="3"/>
<circle cx="159.0" cy="75.0" r="3"/>
<circle cx="183.0" cy="75.0" r="3"/>
<circle cx="195.0" cy="75.0" r="3"/>
<circle cx="75.0" cy="87.0" r="3"/>
<circle cx="87.0" cy="87.0" r="3"/>
<circle cx="135.0" cy="87.0" r="3"/>
<circle cx="207.0" cy="87.0" r="3"/>
<circle cx="231.0" cy="87.0" r="3"/>
<circle cx="39.0" cy="99.0" r="3"/>
<circle cx="87.0" cy="99.0" r="3"/>
<circle cx="111.0" cy="99.0" r="3"/>
<circle cx="219.0" cy="99.0" r="3"/>
<circle cx="231.0" cy="99.0" r="3"/>
<circle cx="51.0" cy="111.0" r="3"/>
<circle cx="63.0" cy="111.0" r="3"/>
<circle cx="75.0" cy="111.0" r="3"/>
<circle cx="111.0" cy="111.0" r="3"/>
<circle cx="123.0" cy="111.0" r="3"/>
<circle cx="147.0" cy="111.0" r="3"/>
<circle cx="195.0" cy="111.0" r="3"/>
<circle cx="231.0" cy="111.0" r="3"/>
<circle cx="15.0" cy="123.0" r="3"/>
<circle cx="39.0" cy="123.0" r="3"/>
<circle cx="75.0" cy="123.0" r="3"/>
<circle cx="111.0" cy="123.0" r="3"/>
<circle cx="135.0" cy="123.0" r="3"/>
<circle cx="159.0" cy="123.0" r="3"/>
<circle cx="183.0" cy="123.0" r="3"/>
<circle cx="219.0" cy="123.0" r="3"/>
<circle cx="51.0" cy="135.0" r="3"/>
<circle cx="63.0" cy="135.0" r="3"/>
<circle cx="99.0" cy="135.0" r="3"/>
<circle cx="111.0" cy="135.0" r="3"/>
<circle cx="123.0" cy="135.0" r="3"/>
<circle cx="147.0" cy="135.0" r="3"/>
<circle cx="15.0" cy="147.0" r="3"/>
<circle cx="51.0" cy="147.0" r="3"/>
<circle cx="111.0" cy="147.0" r="3"/>
<circle cx="123.0" cy="147.0" r="3"/>
<circle cx="171.0" cy="147.0" r="3"/>
<circle cx="183.0" cy="147.0" r="3"/>
<circle cx="195.0" cy="147.0" r="3"/>
<circle cx="207.0" cy="147.0" r="3"/>
<circle cx="219.0" cy="147.0" r="3"/>
<circle cx="51.0" cy="159.0" r="3"/>
<circle cx="63.0" cy="159.0" r="3"/>
<circle cx="75.0" cy="159.0" r="3"/>
<circle cx="99.0" cy="159.0" r="3"/>
<circle cx="111.0" cy="159.0" r="3"/>
<circle cx="3.0" cy="171.0" r="3"/>
<circle cx="39.0" cy="171.0" r="3"/>
<circle cx="63.0" cy="171.0" r="3"/>
<circle cx="99.0" cy="171.0" r="3"/>
<circle cx="147.0" cy="171.0" r="3"/>
<circle cx="171.0" cy="171.0" r="3"/>
<circle cx="231.0" cy="171.0" r="3"/>
<circle cx="87.0" cy="183.0" r="3"/>
<circle cx="99.0" cy="183.0" r="3"/>
<circle cx="147.0" cy="183.0" r="3"/>
<circle cx="183.0" cy="183.0" r="3"/>
</g>
</svg>