<svg width="64" height="64" viewBox="0 0 64 64" fill="none" xmlns="http://www.w3.org/2000/svg">
    <path d="M49.9393 14.5312H14.0608C13.3645 14.5312 12.8 15.0957 12.8 15.792V56.3392C12.8 57.0356 13.3645 57.6 14.0608 57.6H49.9393C50.6356 57.6 51.2001 57.0356 51.2001 56.3392V15.792C51.2001 15.0957 50.6356 14.5312 49.9393 14.5312Z" fill="#4F46E5"/>
    <path d="M38.1216 11.226C37.5264 11.226 36.9856 10.8292 36.8512 10.25C36.3392 8.04519 34.3648 6.40039 32.0032 6.40039C29.6416 6.40039 27.6672 8.04519 27.1552 10.25C27.0208 10.8292 26.48 11.226 25.8848 11.226H19.0112C18.304 11.226 17.7312 11.7988 17.7312 12.506V16.9316C17.7312 17.6388 18.304 18.2116 19.0112 18.2116H45.0016C45.7088 18.2116 46.2816 17.6388 46.2816 16.9316V12.506C46.2816 11.7988 45.7088 11.226 45.0016 11.226H38.128H38.1216Z" fill="#EEF2FF"/>
    <path d="M23.0304 47.4656C23.9159 47.4656 24.6336 46.7493 24.6336 45.8656C24.6336 44.982 23.9159 44.2656 23.0304 44.2656C22.145 44.2656 21.4272 44.982 21.4272 45.8656C21.4272 46.7493 22.145 47.4656 23.0304 47.4656Z" fill="#EEF2FF"/>
    <path d="M30.4992 37.8562C31.3846 37.8562 32.1024 37.1399 32.1024 36.2562C32.1024 35.3726 31.3846 34.6562 30.4992 34.6562C29.6138 34.6562 28.896 35.3726 28.896 36.2562C28.896 37.1399 29.6138 37.8562 30.4992 37.8562Z" fill="#EEF2FF"/>
    <path d="M36.6305 44.2684C37.516 44.2684 38.2337 43.552 38.2337 42.6684C38.2337 41.7847 37.516 41.0684 36.6305 41.0684C35.7451 41.0684 35.0273 41.7847 35.0273 42.6684C35.0273 43.552 35.7451 44.2684 36.6305 44.2684Z" fill="#EEF2FF"/>
    <path d="M43.4943 39.4559C44.3797 39.4559 45.0975 38.7395 45.0975 37.8559C45.0975 36.9722 44.3797 36.2559 43.4943 36.2559C42.6089 36.2559 41.8911 36.9722 41.8911 37.8559C41.8911 38.7395 42.6089 39.4559 43.4943 39.4559Z" fill="#EEF2FF"/>
    <path d="M23.0305 45.8655L30.4993 36.2559L36.6305 42.6687L43.4945 37.8559" stroke="#EEF2FF" stroke-width="0.9184" stroke-linecap="round" stroke-linejoin="round"/>
    <path d="M17.7249 24.625V51.057H45.5809" stroke="#EEF2FF" stroke-width="0.9632" stroke-linecap="round" stroke-linejoin="round"/>
    <path d="M44.3008 23.8184H35.136C34.4273 23.8184 33.8528 24.3929 33.8528 25.1016V25.156C33.8528 25.8647 34.4273 26.4392 35.136 26.4392H44.3008C45.0095 26.4392 45.584 25.8647 45.584 25.156V25.1016C45.584 24.3929 45.0095 23.8184 44.3008 23.8184Z" fill="#EEF2FF"/>
    <path d="M44.2688 27.4375H31.4304C30.7058 27.4375 30.1184 28.0242 30.1184 28.7479C30.1184 29.4716 30.7058 30.0583 31.4304 30.0583H44.2688C44.9934 30.0583 45.5808 29.4716 45.5808 28.7479C45.5808 28.0242 44.9934 27.4375 44.2688 27.4375Z" fill="#EEF2FF"/>
</svg>