<svg width="64" height="64" viewBox="0 0 64 64" fill="none" xmlns="http://www.w3.org/2000/svg">
    <path d="M9.19358 6.91602H45.2064C45.6 6.91602 45.92 7.23602 45.92 7.62962V46.8424C45.92 47.236 45.6 47.556 45.2064 47.556H9.19358C8.79998 47.556 8.47998 47.236 8.47998 46.8424V7.62962C8.47998 7.23602 8.79998 6.91602 9.19358 6.91602Z" fill="#4F46E5"/>
    <path d="M45.2064 7.3975C45.3344 7.3975 45.44 7.5031 45.44 7.6311V46.8439C45.44 46.9719 45.3344 47.0775 45.2064 47.0775H9.1936C9.0656 47.0775 8.96 46.9719 8.96 46.8439V7.6311C8.96 7.5031 9.0656 7.3975 9.1936 7.3975H45.2064ZM45.2064 6.4375H9.1936C8.5344 6.4375 8 6.9719 8 7.6311V46.8439C8 47.5031 8.5344 48.0375 9.1936 48.0375H45.2064C45.8656 48.0375 46.4 47.5031 46.4 46.8439V7.6311C46.4 6.9719 45.8656 6.4375 45.2064 6.4375Z" fill="#EEF2FF"/>
    <path d="M13.9936 11.7188H50.0064C50.4 11.7188 50.72 12.0387 50.72 12.4323V51.6451C50.72 52.0387 50.4 52.3587 50.0064 52.3587H13.9936C13.6 52.3587 13.28 52.0387 13.28 51.6451V12.4323C13.28 12.0387 13.6 11.7188 13.9936 11.7188Z" fill="#4F46E5"/>
    <path d="M50.0065 12.2002C50.1344 12.2002 50.24 12.3058 50.24 12.4338V51.6466C50.24 51.7746 50.1344 51.8802 50.0065 51.8802H13.9936C13.8656 51.8802 13.76 51.7746 13.76 51.6466V12.4338C13.76 12.3058 13.8656 12.2002 13.9936 12.2002H50.0065ZM50.0065 11.2402H13.9936C13.3344 11.2402 12.8 11.7746 12.8 12.4338V51.6466C12.8 52.3058 13.3344 52.8402 13.9936 52.8402H50.0065C50.6656 52.8402 51.2 52.3058 51.2 51.6466V12.4338C51.2 11.7746 50.6656 11.2402 50.0065 11.2402Z" fill="#EEF2FF"/>
    <path d="M54.7615 16.0371H18.8383C18.1543 16.0371 17.5999 16.5916 17.5999 17.2755V56.3987C17.5999 57.0827 18.1543 57.6371 18.8383 57.6371H54.7615C55.4454 57.6371 55.9999 57.0827 55.9999 56.3987V17.2755C55.9999 16.5916 55.4454 16.0371 54.7615 16.0371Z" fill="#EEF2FF"/>
    <path d="M32.7009 23.6211H21.3857C20.6788 23.6211 20.1057 24.1942 20.1057 24.9011V25.7747C20.1057 26.4816 20.6788 27.0547 21.3857 27.0547H32.7009C33.4078 27.0547 33.9809 26.4816 33.9809 25.7747V24.9011C33.9809 24.1942 33.4078 23.6211 32.7009 23.6211Z" fill="#4F46E5"/>
    <path d="M26.8321 19.084H21.0593C20.5327 19.084 20.1057 19.5109 20.1057 20.0376V21.564C20.1057 22.0906 20.5327 22.5176 21.0593 22.5176H26.8321C27.3588 22.5176 27.7857 22.0906 27.7857 21.564V20.0376C27.7857 19.5109 27.3588 19.084 26.8321 19.084Z" fill="#4F46E5"/>
    <path d="M33.5074 19.084H29.837C29.4022 19.084 29.0498 19.4364 29.0498 19.8712V21.7304C29.0498 22.1651 29.4022 22.5176 29.837 22.5176H33.5074C33.9422 22.5176 34.2946 22.1651 34.2946 21.7304V19.8712C34.2946 19.4364 33.9422 19.084 33.5074 19.084Z" fill="#4F46E5"/>
    <path d="M37.3792 30.1445C30.7264 30.1445 25.3856 35.7669 25.8496 42.5221C26.2432 48.2213 30.8608 52.8389 36.56 53.2325C43.312 53.6997 48.9376 48.3589 48.9376 41.7029H38.5248C37.8912 41.7029 37.3792 41.1909 37.3792 40.5573V30.1445Z" fill="#4F46E5"/>
    <path d="M40.125 28.2598C46.029 28.2598 50.8226 33.0534 50.8226 38.9574C50.8226 39.735 50.1922 40.3622 49.4178 40.3622H40.125C39.3474 40.3622 38.7202 39.7318 38.7202 38.9574V29.6646C38.7202 28.887 39.3506 28.2598 40.125 28.2598Z" fill="#4F46E5"/>
    <path d="M38.7168 24.7748L42.0064 22.138C42.3232 21.882 42.7904 21.9492 43.024 22.2852L44.576 24.5156C44.8672 24.7684 45.3088 24.7428 45.568 24.458L48.8832 20.8164" stroke="#4F46E5" stroke-width="1.28" stroke-miterlimit="10" stroke-linecap="round"/>
    <path d="M45.9487 20.8132L49.2927 20.17C49.4303 20.1444 49.5551 20.2468 49.5551 20.3876L49.5743 23.7347" stroke="#4F46E5" stroke-width="1.28" stroke-linecap="round" stroke-linejoin="round"/>
</svg>