<svg width="64" height="64" viewBox="0 0 64 64" fill="none" xmlns="http://www.w3.org/2000/svg">
    <path d="M58.1439 57.7287H17.6639C14.8479 57.7287 12.5759 55.4247 12.5759 52.5447V7.55273H51.8399C53.9839 7.55273 55.7119 9.31273 55.7119 11.4887L55.0079 49.1527C54.9439 52.3207 56.0639 55.3927 58.1439 57.7287Z" fill="#E8EDFF"/>
    <path d="M9.21606 7.39062C9.21606 7.39062 12.5761 9.85462 12.5761 11.9026V7.55062L9.21606 7.39062Z" fill="#EEF2FF"/>
    <path d="M9.21596 7.39062C7.35996 7.39062 5.85596 8.89462 5.85596 10.7506V32.6386C5.85596 33.3106 6.39996 33.8866 7.10396 33.8866H12.608V10.7506C12.576 8.89462 11.072 7.39062 9.21596 7.39062Z" fill="#4F46E5"/>
    <path d="M50.0479 45.2463H32.7999C32.1919 45.2463 31.6799 44.7343 31.6799 44.1263V42.5263C31.6799 41.9183 32.1919 41.4062 32.7999 41.4062H50.0479C50.6559 41.4062 51.1679 41.9183 51.1679 42.5263V44.1263C51.1359 44.7343 50.6559 45.2463 50.0479 45.2463Z" fill="#4F46E5"/>
    <path d="M28.4481 45.2455H18.5281C18.0481 45.2455 17.6641 44.8615 17.6641 44.3815V42.3015C17.6641 41.8215 18.0481 41.4375 18.5281 41.4375H28.4481C28.9281 41.4375 29.3121 41.8215 29.3121 42.3015V44.3815C29.3121 44.8615 28.9281 45.2455 28.4481 45.2455Z" fill="#4F46E5"/>
    <path d="M49.6961 51.0998H19.1361C18.3361 51.0998 17.6641 50.4598 17.6641 49.6278V48.7318C17.6641 47.9318 18.3041 47.2598 19.1361 47.2598H49.6961C50.4961 47.2598 51.1681 47.8998 51.1681 48.7318V49.6278C51.1361 50.4278 50.4961 51.0998 49.6961 51.0998Z" fill="#4F46E5"/>
    <path d="M21.4719 21.3723C22.5919 16.7003 26.3359 12.9563 31.2639 12.2203C37.7919 11.2283 43.9359 15.8363 44.9599 22.5243" stroke="#4F46E5" stroke-width="1.6" stroke-miterlimit="10" stroke-linecap="round" stroke-linejoin="round"/>
    <path d="M46.8158 21.4668L44.8958 23.8988L42.6558 21.7868" stroke="#4F46E5" stroke-width="1.6" stroke-miterlimit="10" stroke-linecap="round" stroke-linejoin="round"/>
    <path d="M45.0239 27.8C43.9039 32.44 40.1599 36.12 35.2319 36.888C28.7039 37.88 22.5599 33.272 21.5359 26.584" stroke="#4F46E5" stroke-width="1.6" stroke-miterlimit="10" stroke-linecap="round" stroke-linejoin="round"/>
    <path d="M19.52 27.5477L21.6 25.1797L23.84 27.2917" stroke="#4F46E5" stroke-width="1.6" stroke-miterlimit="10" stroke-linecap="round" stroke-linejoin="round"/>
    <path d="M39.136 25.5014C38.88 25.2134 38.752 24.8614 38.752 24.4774C38.752 24.1574 38.848 23.8694 39.008 23.6134C39.264 23.2294 39.68 23.0054 40.16 22.9414C40 22.1734 39.68 21.4374 39.264 20.7654C38.464 21.3734 37.632 21.1174 37.216 20.7334C36.992 20.5094 36.832 20.2214 36.768 19.9014C36.672 19.4214 36.8 18.9734 37.12 18.5894C36.448 18.1734 35.712 17.8534 34.944 17.6934C34.816 18.6534 34.112 19.1014 33.472 19.1334C33.152 19.1334 32.864 19.0694 32.608 18.9094C32.192 18.6214 31.936 18.2374 31.904 17.7254C31.104 17.9174 30.4 18.2054 29.728 18.6214C30.336 19.4534 30.08 20.2854 29.632 20.7334C29.408 20.9574 29.152 21.0854 28.832 21.1494C28.352 21.2454 27.936 21.1174 27.552 20.7974C27.136 21.4694 26.848 22.2054 26.688 22.9734C27.584 23.1654 28.032 23.6774 28.096 24.4454C28.128 24.7654 28.032 25.0854 27.84 25.3414C27.584 25.7254 27.2 25.9494 26.72 26.0454C26.88 26.8134 27.2 27.5174 27.616 28.1894C28.416 27.7094 29.12 27.7734 29.664 28.2854C30.144 28.7654 30.368 29.5974 29.792 30.3654C30.464 30.7814 31.168 31.0694 31.904 31.2294C32.224 30.3014 32.672 29.8854 33.408 29.8854C33.696 29.8854 33.984 29.9494 34.24 30.1094C34.656 30.3654 34.88 30.7494 34.944 31.2294C35.712 31.0374 36.416 30.7494 37.088 30.3654C36.64 29.5014 36.672 28.8614 37.216 28.3174C37.44 28.0934 37.696 27.9654 37.984 27.9014C38.464 27.8054 38.88 27.9334 39.264 28.2214C39.68 27.5494 40 26.8454 40.16 26.0774C39.744 25.9494 39.392 25.7894 39.136 25.5014ZM33.376 28.2854C31.264 28.2854 29.536 26.5574 29.568 24.4454C29.568 22.3334 31.296 20.6054 33.408 20.6374C35.52 20.6374 37.248 22.3654 37.248 24.4774C37.216 26.5574 35.488 28.2854 33.376 28.2854Z" fill="#4F46E5"/>
</svg>