<svg width="64" height="64" viewBox="0 0 64 64" fill="none" xmlns="http://www.w3.org/2000/svg">
<path d="M9.90405 26.0585C11.9809 17.3161 19.0273 10.3145 28.2753 8.8969C40.5345 7.0185 52.0289 15.6681 53.9425 28.2153" stroke="#747F94" stroke-width="2.432" stroke-miterlimit="10" stroke-linecap="round"/>
<path d="M57.4464 26.2559L53.8432 30.7967L49.6416 26.8511" stroke="#747F94" stroke-width="2.432" stroke-linecap="round" stroke-linejoin="round"/>
<path d="M54.0415 38.1007C51.9167 46.7695 44.9023 53.6975 35.7055 55.1055C23.4463 56.9839 11.9519 48.3343 10.0383 35.7871" stroke="#747F94" stroke-width="2.432" stroke-miterlimit="10" stroke-linecap="round"/>
<path d="M6.24634 37.6282L10.1375 33.209L14.3423 37.1546" stroke="#747F94" stroke-width="2.432" stroke-linecap="round" stroke-linejoin="round"/>
<path d="M37.2705 16.9418L35.1329 18.017C34.8865 18.225 34.5185 18.225 34.2689 18.017L32.1793 16.2666C31.9297 16.0554 31.5649 16.0586 31.3153 16.2666L29.2353 18.0138C28.9889 18.2218 28.6209 18.2218 28.3713 18.0138L26.2209 16.9322C25.7697 16.5578 25.0785 16.9034 25.1329 17.473V17.745C25.1329 19.8186 25.5873 21.8698 26.4673 23.745H37.0209L37.5073 22.3786C38.0705 20.8074 38.3553 19.1466 38.3553 17.4762C38.4129 16.9066 37.7185 16.561 37.2673 16.9354L37.2705 16.9418Z" fill="#D3D5DA"/>
<path d="M44.9216 33.9768C46.9632 41.6824 43.264 46.7192 31.9008 46.7192C20.5376 46.7192 18.3936 41.3016 19.8944 33.9768C21.3056 27.084 26.6624 21.2344 31.9008 21.2344C37.1392 21.2344 43.12 27.1768 44.9216 33.9768Z" fill="#D3D5DA"/>
<path d="M26.0159 23.3322C26.0159 23.3322 32.8191 26.6826 37.5263 22.4746" stroke="#747F94" stroke-width="1.232" stroke-miterlimit="10" stroke-linecap="round"/>
<path d="M30.2271 24.5938C30.2271 24.5938 28.8895 25.9154 28.4863 27.1378" stroke="#747F94" stroke-width="1.232" stroke-miterlimit="10" stroke-linecap="round"/>
<path d="M33.968 24.8027C33.968 24.8027 35.28 25.5099 35.68 26.9339" stroke="#747F94" stroke-width="1.232" stroke-miterlimit="10" stroke-linecap="round"/>
<path d="M33.1143 41.4767C32.4679 41.4767 31.8755 41.3494 31.3369 41.0947C30.7983 40.8303 30.3429 40.4288 29.9708 39.8902C29.5986 39.3418 29.3391 38.6416 29.1922 37.7897H28.1934V36.732H29.0894C29.0796 36.6537 29.0747 36.5753 29.0747 36.497C29.0747 36.4187 29.0747 36.3403 29.0747 36.262V35.9682C29.0747 35.8898 29.0747 35.8115 29.0747 35.7332C29.0747 35.6548 29.0796 35.5765 29.0894 35.4981H28.1934V34.4405H29.2069C29.3538 33.6277 29.6133 32.9618 29.9854 32.4428C30.3576 31.9237 30.8129 31.5369 31.3516 31.2823C31.8902 31.0277 32.4777 30.9004 33.1143 30.9004C33.6725 30.9004 34.167 30.9738 34.5979 31.1207C35.0386 31.2578 35.4156 31.4684 35.729 31.7524C36.0423 32.0266 36.292 32.3644 36.4781 32.7659C36.674 33.1576 36.8013 33.613 36.86 34.132H35.3911C35.2932 33.6816 35.1561 33.3094 34.9798 33.0156C34.8035 32.7219 34.5636 32.5015 34.26 32.3546C33.9662 32.2077 33.5843 32.1343 33.1143 32.1343C32.5365 32.1343 32.0273 32.3106 31.5866 32.6631C31.1459 33.0156 30.8423 33.6081 30.6758 34.4405H33.9222V35.4981H30.5583C30.5485 35.5765 30.5436 35.6548 30.5436 35.7332C30.5436 35.8115 30.5436 35.8898 30.5436 35.9682V36.262C30.5436 36.3403 30.5436 36.4187 30.5436 36.497C30.5436 36.5753 30.5485 36.6537 30.5583 36.732H33.9222V37.7897H30.6758C30.7934 38.387 30.9745 38.8669 31.2193 39.2292C31.474 39.5915 31.7629 39.8511 32.086 40.0077C32.419 40.1644 32.7617 40.2428 33.1143 40.2428C33.6333 40.2428 34.0446 40.1595 34.3482 39.993C34.6615 39.8168 34.8966 39.5817 35.0532 39.288C35.2197 38.9844 35.3323 38.6367 35.3911 38.245H36.86C36.7817 38.813 36.6397 39.3027 36.434 39.714C36.2284 40.1252 35.964 40.4631 35.6408 40.7275C35.3274 40.9821 34.9553 41.1731 34.5244 41.3004C34.1033 41.4179 33.6333 41.4767 33.1143 41.4767Z" fill="#747F94"/>
</svg>
