<svg width="32" height="32" viewBox="0 0 32 32" fill="none" xmlns="http://www.w3.org/2000/svg">
<path d="M10.6666 16.0002C10.6666 13.0546 13.0544 10.6668 15.9999 10.6668C18.9454 10.6668 21.3333 13.0546 21.3333 16.0002C21.3333 18.9457 18.9454 21.3335 15.9999 21.3335C13.0544 21.3335 10.6666 18.9457 10.6666 16.0002Z" fill="white"/>
<path fill-rule="evenodd" clip-rule="evenodd" d="M6.88186 5.3335H25.118C25.8208 5.33347 26.4272 5.33345 26.9266 5.37426C27.4538 5.41733 27.978 5.51241 28.4826 5.76947C29.2352 6.15297 29.8471 6.76489 30.2306 7.51754C30.4877 8.02204 30.5828 8.54634 30.6258 9.07346C30.6666 9.57288 30.6666 10.1792 30.6666 10.8821V21.1183C30.6666 21.8211 30.6666 22.4274 30.6258 22.9269C30.5828 23.454 30.4877 23.9783 30.2306 24.4828C29.8471 25.2354 29.2352 25.8474 28.4826 26.2309C27.978 26.4879 27.4538 26.583 26.9266 26.6261C26.4272 26.6669 25.8209 26.6669 25.1181 26.6668H6.88189C6.1791 26.6669 5.57261 26.6669 5.07322 26.6261C4.54609 26.583 4.0218 26.4879 3.51729 26.2309C2.76465 25.8474 2.15272 25.2354 1.76923 24.4828C1.51217 23.9783 1.41708 23.454 1.37401 22.9269C1.33321 22.4275 1.33323 21.8211 1.33325 21.1183V10.8821C1.33323 10.1793 1.33321 9.57288 1.37401 9.07346C1.41708 8.54634 1.51217 8.02204 1.76923 7.51754C2.15272 6.76489 2.76465 6.15297 3.51729 5.76947C4.0218 5.51241 4.54609 5.41733 5.07322 5.37426C5.57263 5.33345 6.17902 5.33347 6.88186 5.3335ZM3.99992 13.3335V18.6669C4.61197 18.6672 5.14559 18.671 5.59329 18.7076C6.12042 18.7507 6.64471 18.8457 7.14922 19.1028C7.90187 19.4863 8.51379 20.0982 8.89728 20.8509C9.15434 21.3554 9.24943 21.8797 9.2925 22.4068C9.32908 22.8545 9.33285 23.3881 9.33322 24.0002H22.6666C22.667 23.3881 22.6708 22.8545 22.7073 22.4068C22.7504 21.8797 22.8455 21.3554 23.1026 20.8509C23.4861 20.0982 24.098 19.4863 24.8506 19.1028C25.3551 18.8457 25.8794 18.7507 26.4066 18.7076C26.8543 18.671 27.3879 18.6672 27.9999 18.6669V13.3335C27.3879 13.3331 26.8543 13.3293 26.4066 13.2927C25.8794 13.2497 25.3551 13.1546 24.8506 12.8975C24.098 12.514 23.4861 11.9021 23.1026 11.1495C22.8455 10.645 22.7504 10.1207 22.7073 9.59354C22.6708 9.14583 22.667 8.61221 22.6666 8.00017H9.33322C9.33285 8.61221 9.32908 9.14583 9.2925 9.59354C9.24943 10.1207 9.15434 10.645 8.89728 11.1495C8.51379 11.9021 7.90187 12.514 7.14922 12.8975C6.64471 13.1546 6.12042 13.2497 5.59329 13.2927C5.14559 13.3293 4.61197 13.3331 3.99992 13.3335Z" fill="white"/>
</svg>
