<svg width="68" height="68" viewBox="0 0 68 68" fill="none" xmlns="http://www.w3.org/2000/svg">
<path d="M19.9087 36.8712C19.3182 36.363 19.0765 35.5582 19.2893 34.8088C19.5021 34.0593 20.1308 33.5017 20.9003 33.3798C24.6429 32.7869 28.4328 32.6911 32.1709 33.0951C33.5527 33.2444 34.6376 34.3294 34.787 35.7112C35.191 39.4493 35.0952 43.2392 34.5023 46.9818C34.3804 47.7513 33.8228 48.38 33.0733 48.5928C32.3239 48.8056 31.519 48.5639 31.0109 47.9734L28.1264 44.6211C26.6283 42.8801 25.002 41.2538 23.261 39.7557L19.9087 36.8712Z" fill="#4f46e5"/>
<path d="M28.394 28.3859C27.8035 27.8778 27.5617 27.0729 27.7746 26.3235C27.9874 25.5741 28.6161 25.0164 29.3856 24.8945C33.1281 24.3017 36.9181 24.2058 40.6562 24.6098C42.038 24.7592 43.1229 25.8441 43.2723 27.2259C43.6763 30.964 43.5804 34.754 42.9876 38.4965C42.8657 39.266 42.308 39.8947 41.5586 40.1075C40.8092 40.3204 40.0043 40.0786 39.4962 39.4881L36.6117 36.1358C35.1136 34.3948 33.4873 32.7685 31.7463 31.2704L28.394 28.3859Z" fill="#4f46e5"/>
</svg>
