<svg width="32" height="32" viewBox="0 0 32 32" fill="none" xmlns="http://www.w3.org/2000/svg">
<path d="M28.5163 3.48338C27.9706 2.93773 27.1943 2.7808 26.6554 2.71828C26.0441 2.64736 25.343 2.66051 24.6386 2.71405C23.0442 2.83524 22.1435 2.90516 20.2497 3.54348C18.9164 3.9929 16.6966 5.18056 15.5829 6.04037C15.2351 6.30884 14.915 6.57961 14.6078 6.8641L9.3082 6.8641C8.63057 6.8641 8.10567 7.00949 7.52462 7.35812L5.06655 8.83295C4.81262 8.98523 4.54985 9.14283 4.34487 9.29276C4.14375 9.43988 3.78624 9.72447 3.60071 10.2007C3.38462 10.7554 3.42684 11.3775 3.71589 11.8979C3.96406 12.3446 4.35674 12.5783 4.5759 12.6969C4.79927 12.8178 5.08093 12.9384 5.35311 13.055L8.56996 14.4336C8.5349 14.507 8.50199 14.5813 8.47136 14.6567C7.86374 16.1525 7.96639 17.843 8.75051 19.2542C9.1153 19.9108 9.69447 20.4893 10.4707 21.2646L10.735 21.529C11.5104 22.3052 12.0889 22.8844 12.7454 23.2492C14.1567 24.0333 15.8472 24.1359 17.343 23.5283C17.4184 23.4977 17.4926 23.4648 17.566 23.4297L18.9446 26.6465C19.0612 26.9187 19.1819 27.2004 19.3028 27.4238C19.4214 27.6429 19.655 28.0356 20.1018 28.2838C20.6222 28.5728 21.2443 28.6151 21.799 28.399C22.2752 28.2134 22.5598 27.8559 22.7069 27.6548C22.8569 27.4498 23.0144 27.1871 23.1667 26.9331L24.6416 24.4751C24.9902 23.894 25.1356 23.3691 25.1356 22.6915V17.3919C25.4201 17.0846 25.6908 16.7646 25.9593 16.4168C26.8191 15.3031 28.0068 13.0833 28.4562 11.7499C29.0945 9.85617 29.1644 8.95551 29.2856 7.36103C29.3392 6.65664 29.3523 5.95559 29.2814 5.34429C29.2189 4.80539 29.0619 4.02904 28.5163 3.48338ZM9.3082 9.53076H12.2281C11.5232 10.4161 10.8298 11.3108 10.1322 12.2019L6.92531 10.8275L8.8966 9.64477C9.03594 9.56117 9.1457 9.53076 9.3082 9.53076ZM21.1721 25.0744L19.7977 21.8674C20.6889 21.1699 21.5835 20.4765 22.4689 19.7716V22.6915C22.4689 22.854 22.4385 22.9637 22.3549 23.1031L21.1721 25.0744Z" fill="white"/>
<path d="M5.88887 20.4539C5.36817 19.9332 4.52395 19.9332 4.00326 20.4539L3.06045 21.3968C2.53975 21.9175 2.53975 22.7617 3.06045 23.2824C3.58114 23.8031 4.42536 23.8031 4.94606 23.2824L5.88887 22.3396C6.40957 21.8189 6.40957 20.9746 5.88887 20.4539Z" fill="white"/>
<path d="M8.71736 25.1679C9.23803 24.6472 9.23797 23.803 8.71724 23.2823C8.19651 22.7617 7.35229 22.7617 6.83162 23.2824L3.06062 27.0539C2.53995 27.5746 2.54 28.4188 3.06073 28.9395C3.58147 29.4602 4.42568 29.4601 4.94635 28.9394L8.71736 25.1679Z" fill="white"/>
<path d="M11.5457 27.9964C12.0664 27.4757 12.0664 26.6315 11.5457 26.1108C11.025 25.5901 10.1808 25.5901 9.66011 26.1108L8.7173 27.0536C8.1966 27.5743 8.1966 28.4185 8.7173 28.9392C9.238 29.4599 10.0822 29.4599 10.6029 28.9392L11.5457 27.9964Z" fill="white"/>
</svg>
