<svg width="64" height="64" viewBox="0 0 64 64" fill="none" xmlns="http://www.w3.org/2000/svg">
    <path d="M44.5281 32.9165C36.1217 30.8813 25.1713 31.1533 19.5265 32.9165C15.2737 34.2445 11.6513 36.7597 9.86573 41.1085C9.00173 43.2141 8.53453 45.5021 8.41933 47.7997C8.30413 50.0973 7.97453 53.7165 9.73773 55.0669C13.8017 58.1805 39.1329 58.1805 49.2673 56.3949C51.0625 56.0781 53.2449 56.0205 54.4961 54.3821C55.6033 52.9293 55.6353 50.8525 55.6737 49.0605C55.7313 46.4845 55.5009 44.0429 54.5601 41.6461C52.8065 37.1757 48.9569 33.9885 44.5313 32.9165H44.5281Z" fill="#4F46E5"/>
    <path d="M32.0289 30.0164C38.6616 30.0164 44.0385 24.7298 44.0385 18.2084C44.0385 11.687 38.6616 6.40039 32.0289 6.40039C25.3962 6.40039 20.0193 11.687 20.0193 18.2084C20.0193 24.7298 25.3962 30.0164 32.0289 30.0164Z" fill="#E3E9FF"/>
</svg>