<svg width="64" height="64" viewBox="0 0 64 64" fill="none" xmlns="http://www.w3.org/2000/svg">
<path d="M42.4479 9.93218C44.1439 9.93218 45.5199 11.3114 45.5199 13.0042V21.0362H18.8479V13.0042C18.8479 11.3082 20.2271 9.93218 21.9231 9.93218H42.4479ZM42.4479 7.35938H21.9231C18.8063 7.35938 16.2783 9.88737 16.2783 13.0042V23.609H48.0959V13.0042C48.0959 9.88737 45.5679 7.35938 42.4511 7.35938H42.4479Z" fill="#D3D5DA"/>
<path d="M55.0816 17.6406H9.20956C8.51147 17.6406 7.94556 18.2065 7.94556 18.9046V55.375C7.94556 56.0731 8.51147 56.639 9.20956 56.639H55.0816C55.7796 56.639 56.3456 56.0731 56.3456 55.375V18.9046C56.3456 18.2065 55.7796 17.6406 55.0816 17.6406Z" fill="#747F94"/>
<path d="M26.2657 40.7031H21.9681C21.5527 40.7031 21.2161 41.0398 21.2161 41.4551V52.3255C21.2161 52.7408 21.5527 53.0775 21.9681 53.0775H26.2657C26.681 53.0775 27.0177 52.7408 27.0177 52.3255V41.4551C27.0177 41.0398 26.681 40.7031 26.2657 40.7031Z" fill="#D3D5DA"/>
<path d="M34.3328 44.5254H30.0352C29.6199 44.5254 29.2832 44.8621 29.2832 45.2774V52.327C29.2832 52.7423 29.6199 53.079 30.0352 53.079H34.3328C34.7481 53.079 35.0848 52.7423 35.0848 52.327V45.2774C35.0848 44.8621 34.7481 44.5254 34.3328 44.5254Z" fill="#D3D5DA"/>
<path d="M42.4034 42.5879H38.1058C37.6904 42.5879 37.3538 42.9246 37.3538 43.3399V52.3191C37.3538 52.7344 37.6904 53.0711 38.1058 53.0711H42.4034C42.8187 53.0711 43.1554 52.7344 43.1554 52.3191V43.3399C43.1554 42.9246 42.8187 42.5879 42.4034 42.5879Z" fill="#D3D5DA"/>
<path d="M7.68655 17.6406H56.3137C57.0241 17.6406 57.6001 18.2166 57.6001 18.927V24.6646C57.6001 31.551 52.0097 37.1414 45.1233 37.1414H18.8769C11.9905 37.1414 6.40015 31.551 6.40015 24.6646V18.927C6.40015 18.2166 6.97615 17.6406 7.68655 17.6406Z" fill="#D3D5DA"/>
<path d="M38.8031 27.3906H25.5647V32.1394H38.8031V27.3906Z" fill="#747F94"/>
</svg>
