<svg width="64" height="64" viewBox="0 0 64 64" fill="none" xmlns="http://www.w3.org/2000/svg">
<path d="M32.0068 56.5479C30.7588 56.5479 29.4788 56.4519 28.2308 56.2279C22.2788 55.2359 17.0308 51.9079 13.4788 46.8839C9.70277 41.5399 8.23077 34.9799 9.38277 28.3879C10.3748 22.6599 13.2868 17.4439 17.6068 13.6999C21.8948 10.0199 27.2388 8.00391 32.7108 8.00391C33.9588 8.00391 35.2388 8.09991 36.4868 8.32391C42.4388 9.31591 47.6868 12.6439 51.2388 17.6679C55.0148 23.0119 56.4868 29.5719 55.3348 36.1639C54.3428 41.8919 51.4308 47.1079 47.1108 50.8519C42.8228 54.5319 37.4788 56.5479 32.0068 56.5479Z" fill="#747F94"/>
<path d="M32.3522 8.51739C33.5682 8.51739 34.8162 8.61339 36.0322 8.83739C41.8562 9.82939 46.9762 13.0614 50.4642 17.9894C54.1762 23.2054 55.5842 29.6694 54.4962 36.1334C53.5362 41.7334 50.6562 46.8534 46.4322 50.5014C42.2402 54.1174 36.9922 56.1014 31.6482 56.1014C30.4322 56.1014 29.1842 56.0054 27.9682 55.7814C22.1442 54.7894 17.0242 51.5574 13.5362 46.6294C9.82417 41.4134 8.41617 34.9494 9.50417 28.4854C10.4642 22.8854 13.3442 17.7654 17.5682 14.1174C21.7602 10.5014 27.0082 8.51739 32.3522 8.51739ZM32.3522 7.52539C20.8642 7.52539 10.6242 16.1654 8.51217 28.3254C6.17617 41.8294 14.8162 54.5654 27.7762 56.7414C29.0562 56.9654 30.3362 57.0614 31.6162 57.0614C43.1042 57.0614 53.3442 48.4214 55.4562 36.2614C57.7922 22.7574 49.1522 10.0214 36.1922 7.84539C34.9122 7.62139 33.6322 7.52539 32.3522 7.52539Z" fill="#D3D5DA"/>
<mask id="mask0_reject" style="mask-type:alpha" maskUnits="userSpaceOnUse" x="9" y="8" width="47" height="49">
<path d="M32.0068 56.546C30.7588 56.546 29.4788 56.45 28.2308 56.226C22.2788 55.234 17.0308 51.906 13.4788 46.882C9.70277 41.538 8.23077 34.978 9.38277 28.386C10.3748 22.658 13.2868 17.442 17.6068 13.698C21.8948 10.018 27.2388 8.00195 32.7108 8.00195C33.9588 8.00195 35.2388 8.09795 36.4868 8.32195C42.4388 9.31395 47.6868 12.642 51.2388 17.666C55.0148 23.01 56.4868 29.57 55.3348 36.162C54.3428 41.89 51.4308 47.106 47.1108 50.85C42.8228 54.53 37.4788 56.546 32.0068 56.546Z" fill="#0085FF"/>
</mask>
<g mask="url(#mask0_reject)">
<path d="M48.2881 35.6543L55.2961 36.8383" stroke="#D3D5DA" stroke-width="1.39738" stroke-miterlimit="10"/>
<path d="M35.968 22.7227L57.088 26.3067" stroke="#D3D5DA" stroke-width="1.39738" stroke-miterlimit="10"/>
<path d="M36.8962 17.4766L58.0162 21.0286" stroke="#D3D5DA" stroke-width="1.39738" stroke-miterlimit="10"/>
<path d="M37.792 12.1953L58.912 15.7793" stroke="#D3D5DA" stroke-width="1.39738" stroke-miterlimit="10"/>
<path d="M47.4238 40.6445L54.4318 41.8285" stroke="#D3D5DA" stroke-width="1.39738" stroke-miterlimit="10"/>
<path d="M37.8879 44.1641L53.5679 46.8201" stroke="#D3D5DA" stroke-width="1.39738" stroke-miterlimit="10"/>
<path d="M37.0242 49.1855L52.7042 51.8415" stroke="#D3D5DA" stroke-width="1.39738" stroke-miterlimit="10"/>
<path d="M34.0801 53.8262L49.7601 56.4822" stroke="#D3D5DA" stroke-width="1.39738" stroke-miterlimit="10"/>
<path d="M49.1838 30.3711L56.1918 31.5551" stroke="#D3D5DA" stroke-width="1.39738" stroke-miterlimit="10"/>
</g>
<path d="M28.8001 55.7787C27.6801 55.7787 26.5281 55.6827 25.4401 55.4907C20.0321 54.5627 15.2321 51.4907 11.9361 46.8507C8.19214 41.5707 6.72014 34.6907 7.87214 28.0027C8.86414 22.2747 11.6801 17.0267 15.8401 13.2827C19.9361 9.57069 25.0561 7.55469 30.2721 7.55469C31.3921 7.55469 32.5441 7.65069 33.6321 7.84269C39.0401 8.77069 43.8401 11.8427 47.1361 16.4827C50.8801 21.7627 52.3521 28.6427 51.2001 35.3307C50.2081 41.0587 47.3921 46.3067 43.2321 50.0507C39.1041 53.7627 33.9841 55.7787 28.8001 55.7787Z" fill="#747F94"/>
<path d="M30.272 8.16206C31.36 8.16206 32.448 8.25806 33.536 8.45006C38.784 9.34606 43.424 12.3221 46.624 16.8661C50.272 22.0181 51.7121 28.7061 50.592 35.2661C49.632 40.8661 46.848 45.9541 42.816 49.6341C38.816 53.2181 33.856 55.2021 28.8 55.2021C27.712 55.2021 26.624 55.1061 25.536 54.9141C20.288 54.0181 15.648 51.0421 12.448 46.4981C8.80005 41.3461 7.36005 34.6581 8.48005 28.0981C9.44005 22.4981 12.224 17.4101 16.256 13.7301C20.256 10.1461 25.216 8.16206 30.272 8.16206ZM30.272 6.91406C19.264 6.91406 9.34405 15.6501 7.26405 27.8741C4.92805 41.3781 13.024 54.0181 25.344 56.0981C26.496 56.2901 27.68 56.3861 28.832 56.3861C39.84 56.3861 49.76 47.6501 51.84 35.4261C54.176 21.9221 46.08 9.28206 33.76 7.20206C32.576 7.01006 31.424 6.91406 30.272 6.91406Z" fill="#D3D5DA"/>
<path d="M28.9601 50.8805C28.0641 50.8805 27.1681 50.8165 26.2721 50.6565C21.9841 49.9205 18.1441 47.4885 15.5201 43.7765C12.5441 39.5845 11.3601 34.1125 12.2881 28.7685C13.0881 24.1925 15.3281 20.0325 18.6561 17.0565C21.9201 14.1125 26.0161 12.4805 30.1441 12.4805C31.0401 12.4805 31.9361 12.5445 32.8321 12.7045C37.1201 13.4405 40.9601 15.8725 43.5841 19.5845C46.5601 23.7765 47.7441 29.2485 46.8161 34.5925C46.0161 39.1685 43.7761 43.3285 40.4481 46.3045C37.1841 49.2485 33.0881 50.8805 28.9601 50.8805Z" fill="#D3D5DA"/>
<path d="M30.1121 12.9315C30.9761 12.9315 31.8401 12.9955 32.7041 13.1555C36.8641 13.8595 40.5761 16.2275 43.1361 19.8435C46.0481 23.9395 47.2001 29.2835 46.3041 34.4995C45.5361 38.9475 43.3281 43.0115 40.0961 45.9555C36.9281 48.8355 32.9601 50.4035 28.9281 50.4035C28.0641 50.4035 27.2001 50.3395 26.3361 50.1795C22.1761 49.4755 18.4641 47.1074 15.9041 43.4914C12.9921 39.3954 11.8401 34.0515 12.7361 28.8355C13.5041 24.3875 15.7121 20.3235 18.9441 17.3795C22.1441 14.5315 26.1121 12.9315 30.1121 12.9315ZM30.1121 11.9395C21.3441 11.9395 13.4401 18.9155 11.7761 28.6435C9.92007 39.3955 16.3841 49.4755 26.1761 51.1395C27.1041 51.2995 28.0321 51.3635 28.9281 51.3635C37.6961 51.3635 45.6001 44.3875 47.2641 34.6595C49.1201 23.9075 42.6561 13.8275 32.8641 12.1635C31.9681 12.0355 31.0401 11.9395 30.1121 11.9395Z" fill="#747F94"/>
<path d="M25.312 33.4392L28 19.1992L36.832 21.9512L30.848 35.1352L25.312 33.4392ZM25.44 42.7512C22.528 41.8552 21.76 40.0632 22.496 37.7592C23.296 35.2632 24.864 34.6872 27.712 35.5832C30.56 36.4792 31.52 37.8552 30.72 40.3192C29.984 42.6552 28.352 43.6792 25.44 42.7512Z" fill="#747F94"/>
</svg>
